<svg width="75" height="80" viewBox="0 0 75 80" fill="none" xmlns="http://www.w3.org/2000/svg">
<path d="M13.3797 17.8445C12.3729 17.1052 11.4439 16.6275 10.7856 15.903C8.77558 13.6884 8.41219 11.0338 9.1184 8.2124C10.1526 4.07913 13.5259 1.15716 17.9163 0.550365C21.5925 0.0429909 25.2824 -0.143272 28.9917 0.117271C33.9774 0.468091 38.9712 0.714923 43.9478 1.16173C50.1186 1.7171 56.2608 2.51129 62.3012 3.966C66.6391 5.01045 69.6216 7.57247 71.4226 11.628C72.6464 14.3866 73.3595 17.2686 73.5789 20.2534C73.8326 23.7033 73.9857 27.1635 74.0897 30.6214C74.3194 38.264 74.5548 45.9066 74.6611 53.5504C74.7159 57.4894 74.4794 61.4307 74.4234 65.3719C74.4039 66.7192 73.9549 67.7991 72.9058 68.6356C72.4556 68.9944 72.0408 69.4047 71.5631 69.7235C65.8632 73.5322 59.8135 76.6336 53.2965 78.8048C50.5711 79.7133 47.7725 80.0298 44.9203 79.9978C39.8625 79.9418 34.8516 79.3602 29.859 78.6094C21.1148 77.293 12.5135 75.2715 3.91781 73.2374C0.213069 72.3609 0.130799 72.0478 0.0336665 68.3785C-0.138886 61.8752 0.370773 55.4039 1.12955 48.9554C1.62321 44.7593 2.27571 40.5803 2.91564 36.4036C3.27674 34.0519 4.11208 31.8681 5.47994 29.8889C7.33802 27.2001 9.16411 24.4884 10.9685 21.7641C11.8141 20.4888 12.5763 19.1575 13.3797 17.8445ZM14.5601 18.0822C13.2185 20.2682 12.0724 22.2097 10.8519 24.1044C9.34237 26.4481 7.7734 28.753 6.22843 31.0739C5.41937 32.2898 4.85372 33.6119 4.59203 35.0461C4.1178 37.6447 3.59214 40.2375 3.23904 42.8532C2.02202 51.8671 1.52494 60.9404 1.08041 70.0172C1.03927 70.8639 1.37638 71.2708 2.08487 71.5107C2.44826 71.6341 2.81737 71.7438 3.19104 71.8295C5.53022 72.3643 7.87168 72.89 10.2131 73.4191C20.6177 75.7697 31.0509 77.9375 41.7343 78.6105C45.2094 78.83 48.6719 78.8711 52.0269 77.83C59.5758 75.4874 66.4197 71.7324 72.8955 67.2529C73.5229 66.8186 73.5583 66.293 73.5446 65.6405C73.2578 52.8522 73.003 40.0627 72.6898 27.2743C72.6247 24.6346 72.4133 21.9938 72.1505 19.3643C71.8716 16.5715 71.0832 13.9089 69.8227 11.3823C68.2686 8.26611 65.8449 6.22976 62.4658 5.4127C60.1815 4.86076 57.8846 4.3031 55.5603 3.98999C50.4682 3.30206 45.3602 2.72728 40.2499 2.18105C34.8448 1.60283 29.4179 1.26914 23.9808 1.39141C21.8256 1.4394 19.6521 1.61653 17.5301 1.98107C12.7706 2.79812 9.73777 6.74056 10.0772 11.4441C10.2817 14.2803 12.1581 16.4607 14.9521 17.0492C16.3611 17.3463 17.7758 17.6331 19.2019 17.8239C26.1051 18.7427 33.0095 19.6592 39.9208 20.5151C45.9419 21.2601 51.9938 21.5561 58.0571 21.2853C59.7187 21.211 61.3802 20.8248 63.0086 20.4419C64.1411 20.1768 65.1855 19.5758 65.8243 18.5541C67.0996 16.5155 67.2744 14.3009 66.5419 12.0428C66.1431 10.8155 65.1432 10.2213 63.8839 10.1779C62.6955 10.1368 61.9013 10.795 61.4202 11.8463C60.7346 13.3444 60.6683 14.9123 60.9734 16.5029C61.034 16.8206 61.2099 17.1371 61.4019 17.4045C61.9241 18.1336 62.4887 18.2467 63.2794 17.8319C64.8164 17.0263 65.3112 14.7957 64.2622 13.3433C64.2005 13.2576 64.0154 13.2599 63.7274 13.173C63.4657 13.9192 63.2132 14.6403 62.9229 15.471C62.1755 14.71 62.371 13.9855 62.6509 13.2633C62.8715 12.6953 63.2463 12.2291 63.8805 12.1743C64.5216 12.1183 64.9375 12.5468 65.2552 13.0622C66.4219 14.9534 65.6038 17.8079 63.612 18.7953C62.5127 19.3403 61.3699 19.1472 60.6431 18.177C60.2798 17.6914 59.9689 17.0949 59.8581 16.5064C59.5438 14.8265 59.6398 13.1513 60.33 11.556C61.0477 9.89564 62.4829 8.91631 63.9925 9.02373C65.8769 9.15743 67.2939 10.251 67.7818 12.0486C68.3257 14.0563 68.1932 16.0527 67.4618 17.9965C66.9682 19.3072 66.0757 20.2728 64.8438 20.9527C63.1172 21.9058 61.2248 22.2623 59.3096 22.404C53.8256 22.8074 48.3519 22.4771 42.8919 21.9663C39.258 21.6258 35.6287 21.2007 32.0119 20.7048C26.7302 19.9814 21.4622 19.1632 16.1896 18.3793C15.5817 18.2925 14.9829 18.161 14.5601 18.0822Z" fill="black"/>
<path d="M73.5446 65.6418C73.2577 52.8534 73.0029 40.0639 72.6898 27.2756C72.6247 24.6359 72.4132 21.995 72.1504 19.3656C71.8716 16.5727 71.0831 13.9102 69.8227 11.3836C68.4754 8.68217 66.4745 6.79323 63.765 5.80591C63.0474 6.06188 62.364 6.4207 61.755 6.87665C61.955 6.80808 62.1606 6.74637 62.3766 6.6938C60.6065 8.38962 58.8547 10.0397 58.2262 12.5538C57.616 14.9946 58.1828 17.3441 58.7941 19.873C58.5565 19.7118 58.3405 19.5027 58.1451 19.2547C58.2753 20.0055 58.7359 20.7814 59.3392 21.17C60.5711 21.0111 61.7984 20.7254 63.0074 20.442C64.1399 20.1769 65.1843 19.5759 65.8231 18.5543C67.0984 16.5156 67.2732 14.301 66.5407 12.0429C66.1419 10.8156 65.142 10.2214 63.8827 10.178C62.6943 10.1369 61.9001 10.7951 61.419 11.8464C60.7334 13.3445 60.6671 14.9124 60.9722 16.5031C61.0328 16.8207 61.2087 17.1373 61.4007 17.4047C61.9229 18.1337 62.4875 18.2469 63.2782 17.832C64.8152 17.0264 65.31 14.7958 64.261 13.3434C64.1993 13.2577 64.0142 13.26 63.7262 13.1731C63.4645 13.9193 63.212 14.6404 62.9217 15.4711C62.1744 14.7101 62.3698 13.9856 62.6497 13.2634C62.8703 12.6955 63.2451 12.2292 63.8793 12.1744C64.5204 12.1184 64.9363 12.5469 65.254 13.0623C66.4208 14.9535 65.6026 17.8081 63.6108 18.7954C62.5115 19.3405 61.3687 19.1473 60.6419 18.1772C60.2786 17.6915 59.9677 17.095 59.8569 16.5065C59.5426 14.8267 59.6386 13.1514 60.3288 11.5561C61.0465 9.89575 62.4817 8.91642 63.9913 9.02384C65.8757 9.15754 67.2927 10.2511 67.7806 12.0487C68.3245 14.0564 68.192 16.0528 67.4606 17.9966C66.967 19.3073 66.0745 20.2729 64.8426 20.9529C63.116 21.9059 61.2236 22.2624 59.3084 22.4041C59.2604 22.4075 59.2124 22.4098 59.1632 22.4133C59.025 22.8258 58.8021 23.2006 58.5907 23.5891C58.8536 24.2656 58.537 24.629 58.3565 25.0073C56.7806 28.3018 55.2391 31.6123 53.6107 34.8816C51.4304 39.2617 50.4293 43.8898 50.1905 48.7647C49.8477 55.7743 49.3095 62.7735 48.8558 69.7773C48.7404 71.552 48.6364 73.3289 48.5164 75.1036C48.489 75.5024 48.4147 75.8989 48.3278 76.5583C48.2021 76.428 48.1119 76.3023 48.0433 76.1824C48.001 77.0051 48.041 77.8016 48.1062 78.6004C49.426 78.469 50.7356 78.2301 52.0292 77.8279C59.5781 75.4853 66.4219 71.7303 72.8978 67.2507C73.524 66.8199 73.5594 66.2931 73.5446 65.6418ZM60.6728 61.0514C59.874 62.3084 59.041 63.5437 58.2353 64.7973C56.1293 68.0689 54.0335 71.3474 51.9286 74.6191C51.732 74.9242 51.5035 75.2076 51.2898 75.5001C51.163 75.443 51.0361 75.387 50.9093 75.3299C51.0475 74.9562 51.139 74.5551 51.3309 74.2111C54.0724 69.3088 57.2709 64.715 60.8728 60.3452C60.8088 60.5829 60.7985 60.8537 60.6728 61.0514ZM63.4428 57.1993C63.3822 57.6803 63.18 58.1443 63.0428 58.6151C62.9263 58.5865 62.8086 58.5591 62.692 58.5317C64.1033 46.7158 65.2254 34.8782 65.3546 22.6738C66.0379 23.2543 65.9682 23.7491 65.9579 24.1742C65.8814 27.439 65.8597 30.7084 65.6643 33.9674C65.4003 38.3795 65.0483 42.7871 64.6347 47.1877C64.3215 50.5314 63.8633 53.8636 63.4428 57.1993ZM72.0121 65.2681C69.745 63.6568 67.4904 62.0285 65.2392 60.3955C65.1009 60.2949 65.0152 60.1212 64.9055 59.9818C64.9923 59.8744 65.078 59.7681 65.1649 59.6607C67.6949 61.4548 70.3758 63.0363 72.6087 65.3424C72.4064 65.3218 72.1561 65.3709 72.0121 65.2681Z" fill="#B3804F"/>
<path d="M58.1462 19.2558C56.9657 17.7599 56.5783 14.8311 57.3005 12.276C57.9965 9.81566 59.2203 7.74159 61.7561 6.87654C62.3651 6.42059 63.0485 6.06177 63.7661 5.8058C63.3502 5.65381 62.9171 5.52354 62.4668 5.41384C60.1825 4.8619 57.8856 4.30425 55.5613 3.99114C50.4693 3.30321 45.3613 2.72841 40.251 2.18218C34.8458 1.60396 29.419 1.27029 23.9818 1.39256C21.8266 1.44055 19.6532 1.61769 17.5311 1.98222C12.7716 2.79927 9.73881 6.74169 10.0782 11.4452C10.2827 14.2815 12.1591 16.4618 14.9531 17.0503C16.3621 17.3474 17.7768 17.6342 19.2029 17.8251C26.1062 18.7438 33.0106 19.6603 39.9218 20.5162C45.9429 21.2613 51.9948 21.5572 58.0582 21.2864C58.4856 21.267 58.9141 21.227 59.3415 21.1722C58.7358 20.7825 58.2753 20.0054 58.1462 19.2558Z" fill="#CB915A"/>
<path d="M44.269 23.036C34.0918 21.4533 24.0232 21.1642 14.2677 18.561C13.0506 20.5528 11.9822 22.3503 10.852 24.1044C9.34247 26.4482 7.7735 28.7531 6.22852 31.074C5.41946 32.2898 4.85381 33.612 4.59213 35.0461C4.11789 37.6447 3.59223 40.2376 3.23913 42.8533C2.02212 51.8672 1.52503 60.9405 1.08051 70.0172C1.03937 70.864 1.37647 71.2708 2.08497 71.5108C2.44836 71.6342 2.81746 71.7439 3.19114 71.8296C5.53031 72.3644 7.87177 72.8901 10.2132 73.4191C20.6178 75.7697 31.051 77.9375 41.7344 78.6106C43.8702 78.7454 46.0002 78.8117 48.104 78.6026C48.04 77.8038 47.9989 77.0073 48.0412 76.1845C47.7955 75.7526 47.8652 75.3835 47.88 75.0487C48.008 72.2638 48.1463 69.479 48.3006 66.6953C48.56 61.9907 48.8262 57.2872 49.1016 52.5837C49.2536 49.9931 49.409 47.4025 49.601 44.8142C49.8318 41.706 50.7529 38.7634 52.0716 35.9763C53.8382 32.243 55.7626 28.584 57.6333 24.9009C57.8584 24.4575 58.1749 24.0599 58.5475 23.4897C58.5635 23.5239 58.576 23.5571 58.5886 23.5902C58.6355 23.5034 58.6834 23.4177 58.7303 23.332C53.9091 23.7205 49.1245 23.7685 44.269 23.036ZM43.5616 37.1167C40.61 36.7294 37.664 36.302 34.7123 35.918C30.3791 35.3547 26.0435 34.813 21.708 34.2725C17.753 33.78 13.7969 33.3034 9.84185 32.8109C9.67615 32.7904 9.52073 32.6852 9.36075 32.619C12.0999 31.9413 42.4315 35.7809 44.8244 37.0116C44.213 37.0676 43.8782 37.159 43.5616 37.1167Z" fill="#CB915A"/>
<path d="M58.7325 23.3331C58.897 23.0337 59.0559 22.7366 59.1633 22.4154C53.7284 22.8028 48.3016 22.4749 42.8896 21.9675C39.2557 21.627 35.6264 21.2019 32.0096 20.7059C26.7279 19.9826 21.4599 19.1644 16.1873 18.3804C15.5828 18.2902 14.984 18.1599 14.5612 18.0811C14.4618 18.2422 14.3658 18.3999 14.2687 18.5587C24.0231 21.1619 34.0928 21.451 44.27 23.0337C49.1244 23.7684 53.909 23.7204 58.7325 23.3331Z" fill="#C28B56"/>
<path d="M58.5486 23.4908C58.8845 24.2336 58.5451 24.613 58.3554 25.0095C56.7796 28.304 55.238 31.6145 53.6096 34.8839C51.4293 39.264 50.4283 43.8921 50.1894 48.767C49.8466 55.7765 49.3084 62.7757 48.8547 69.7796C48.7393 71.5542 48.6353 73.3312 48.5153 75.1059C48.4879 75.5047 48.4136 75.9012 48.3268 76.5606C47.752 75.9606 47.8617 75.4773 47.8811 75.0487C48.0091 72.2639 48.1474 69.4791 48.3017 66.6954C48.5611 61.9907 48.8273 57.2872 49.1027 52.5837C49.2547 49.9932 49.4101 47.4026 49.6021 44.8143C49.8329 41.706 50.754 38.7635 52.0727 35.9764C53.8393 32.243 55.7637 28.584 57.6344 24.901C57.8595 24.4576 58.176 24.0599 58.5486 23.4908Z" fill="black"/>
<path d="M9.3606 32.6189C12.0997 31.9412 42.4313 35.7808 44.8242 37.0115C44.2129 37.0675 43.878 37.1589 43.5615 37.1166C40.6098 36.7293 37.6638 36.3019 34.7122 35.9179C30.3789 35.3546 26.0434 34.8129 21.7078 34.2724C17.7528 33.7799 13.7967 33.3034 9.84169 32.8108C9.676 32.7903 9.52058 32.6851 9.3606 32.6189Z" fill="black"/>
<path d="M62.6921 58.5316C64.1034 46.7157 65.2256 34.8781 65.3547 22.6737C66.0381 23.2542 65.9684 23.749 65.9581 24.1741C65.8815 27.4389 65.8598 30.7083 65.6644 33.9673C65.4004 38.3794 65.0485 42.787 64.6348 47.1876C64.3205 50.5336 63.8612 53.8658 63.4418 57.2003C63.3812 57.6814 63.1789 58.1453 63.0418 58.6161C62.9264 58.5864 62.8098 58.559 62.6921 58.5316Z" fill="black"/>
<path d="M62.3778 6.69373C60.6077 8.38954 58.8558 10.0397 58.2273 12.5537C57.6171 14.9946 58.1839 17.344 58.7953 19.8729C57.1235 18.7393 56.4595 15.254 57.3006 12.2748C58.0502 9.62256 59.4146 7.41708 62.3778 6.69373Z" fill="black"/>
<path d="M50.9081 75.3298C51.0464 74.9561 51.1378 74.555 51.3298 74.211C54.0712 69.3087 57.2697 64.7149 60.8716 60.3451C60.8076 60.5816 60.7984 60.8525 60.6727 61.0502C59.874 62.3072 59.0409 63.5425 58.2342 64.796C56.1292 68.0677 54.0323 71.3462 51.9274 74.6178C51.7308 74.9229 51.5023 75.2063 51.2886 75.4989C51.1629 75.4429 51.0361 75.3869 50.9081 75.3298Z" fill="black"/>
<path d="M65.1639 59.6616C67.6939 61.4557 70.3748 63.0372 72.6077 65.3433C72.4066 65.3216 72.1551 65.3696 72.0123 65.2678C69.7451 63.6566 67.4905 62.0282 65.2393 60.3953C65.101 60.2947 65.0153 60.121 64.9056 59.9816C64.9913 59.8753 65.0782 59.7679 65.1639 59.6616Z" fill="black"/>
</svg>
